<svg xmlns="http://www.w3.org/2000/svg" viewBox="0 0 64 64">
  <rect width="64" height="64" rx="14" fill="#1B3A28"/>
  <path d="M32,8 C22,8 14,16 14,26 C14,39 32,56 32,56 C32,56 50,39 50,26 C50,16 42,8 32,8 Z" fill="#F5C518"/>
  <rect x="20" y="22" width="9" height="8" rx="1.5" fill="#1B3A28"/>
  <path d="M29,24 L36,22 L41,28 L29,29 Z" fill="#1B3A28"/>
  <circle cx="36" cy="17" r="4" fill="#1B3A28"/>
  <path d="M41,24 L43,31" stroke="#1B3A28" stroke-width="2" stroke-linecap="round"/>
  <path d="M29,29 L24,33" stroke="#1B3A28" stroke-width="2" stroke-linecap="round"/>
  <circle cx="22" cy="37" r="5" fill="none" stroke="#1B3A28" stroke-width="2.5"/>
  <circle cx="43" cy="37" r="5" fill="none" stroke="#1B3A28" stroke-width="2.5"/>
  <line x1="22" y1="32" x2="43" y2="32" stroke="#1B3A28" stroke-width="2"/>
</svg>
